<svg width="24" height="24" viewBox="0 0 24 24" fill="none" xmlns="http://www.w3.org/2000/svg">
<path d="M17.8195 14.2813C13.4867 14.3025 12.7858 16.9125 12.5522 19.1194L12.4461 20.0955H11.5752L11.469 19.1194C11.2354 16.9125 10.5133 14.3025 6.32919 14.2813C5.62832 12.8382 5.33097 11.6711 5.33097 10.3555C5.33097 7.06641 8.02834 3.98939 12.0212 3.98939C16.0141 3.98939 18.669 7.04507 18.669 10.3768C18.669 11.6711 18.5416 12.8382 17.8195 14.2813ZM11.9788 0C5.39475 0 0 5.38997 0 11.9893C0 18.6101 5.39475 24 11.9788 24C18.6265 24 24 18.6101 24 11.9893C24 5.38999 18.6265 0 11.9788 0Z" fill="#29B24A"/>
</svg>
