<svg width="33" height="31" viewBox="0 0 33 31" fill="none" xmlns="http://www.w3.org/2000/svg">
<g clip-path="url(#clip0_405_8978)">
<path d="M20.2998 1.84137L17.118 1.0625L14.4367 10.2044L12.0159 1.95103L8.83403 2.7299L11.4495 11.6471L4.93495 5.69568L2.60569 7.82358L9.75135 14.3516L0.852569 12.1733L0 15.08L9.72304 17.4601C9.61172 17.0215 9.55283 16.5644 9.55283 16.0948C9.55283 12.7708 12.5024 10.0762 16.141 10.0762C19.7795 10.0762 22.7291 12.7708 22.7291 16.0948C22.7291 16.5614 22.671 17.0156 22.561 17.4517L31.3975 19.6147L32.25 16.7079L22.4883 14.3184L31.3877 12.1399L30.5351 9.2332L20.7738 11.6226L27.2883 5.67124L24.9591 3.54334L17.9125 9.98076L20.2998 1.84137Z" fill="#FF4405"/>
<path d="M22.5517 17.4855C22.2789 18.5391 21.703 19.4856 20.9128 20.244L27.3144 26.0923L29.6437 23.9644L22.5517 17.4855Z" fill="#FF4405"/>
<path d="M20.8482 20.3051C20.0484 21.0514 19.0377 21.6083 17.9043 21.8952L20.2337 29.8372L23.4155 29.0583L20.8482 20.3051Z" fill="#FF4405"/>
<path d="M17.7854 21.9243C17.2596 22.0478 16.7084 22.1134 16.1404 22.1134C15.5319 22.1134 14.9426 22.038 14.3832 21.8969L12.0517 29.8462L15.2335 30.625L17.7854 21.9243Z" fill="#FF4405"/>
<path d="M14.2707 21.8676C13.1546 21.5664 12.1619 21.0024 11.3785 20.254L4.96109 26.1167L7.29035 28.2446L14.2707 21.8676Z" fill="#FF4405"/>
<path d="M11.3256 20.2022C10.5556 19.4491 9.99469 18.5152 9.72772 17.4779L0.862424 19.648L1.71499 22.5547L11.3256 20.2022Z" fill="#FF4405"/>
</g>
<defs>
<clipPath id="clip0_405_8978">
<rect width="33" height="30.25" fill="white" transform="translate(0 0.375)"/>
</clipPath>
</defs>
</svg>
