<svg width="33" height="31" viewBox="0 0 33 31" fill="none" xmlns="http://www.w3.org/2000/svg">
<path d="M8.89254 2.02491L12.7618 15.262V0.708866C13.0687 0.643235 13.3788 0.585436 13.6919 0.535711V15.2634L18.0439 0.375C18.3575 0.401027 18.6686 0.435081 18.9769 0.476938L14.5899 15.4853L23.3102 1.63988C23.5943 1.75703 23.8741 1.88132 24.1494 2.01251L15.3966 15.9096L27.8924 4.45504C28.1176 4.65034 28.3369 4.85137 28.55 5.0579L16.0523 16.5141L31.2145 8.48968C31.3576 8.74205 31.4931 8.99858 31.6209 9.25902L16.5206 17.2507L32.8888 13.2303C32.9345 13.5129 32.9716 13.7981 33 14.0856L16.7583 18.0749L32.8244 18.0749C32.7702 18.3619 32.7071 18.6462 32.6355 18.9274H16.7559L31.1991 22.475C31.0508 22.7354 30.8945 22.9913 30.7304 23.2425L16.5193 19.7519L28.3888 26.0338C28.1641 26.2456 27.9327 26.4514 27.695 26.651L16.0553 20.4908L24.8628 28.5644C24.5842 28.7136 24.3005 28.8556 24.0118 28.99L15.3967 21.0928L21.0414 30.055C20.7323 30.1351 20.4196 30.2071 20.1035 30.2709L14.5904 21.5177L17.2485 30.6111C17.0116 30.6203 16.7734 30.625 16.534 30.625C16.4522 30.625 16.3707 30.6245 16.2892 30.6234L13.6919 21.7377V30.4019C13.3788 30.3522 13.0687 30.2944 12.7618 30.2288V21.7391L10.4717 29.5738C10.1796 29.4683 9.89154 29.3553 9.60785 29.2351L11.8632 21.5196L7.62948 28.2415C7.36738 28.0876 7.11032 27.9272 6.85859 27.7604L11.059 21.0913L5.17662 26.4835C4.95132 26.2882 4.73201 26.0872 4.51896 25.8807L10.3995 20.4902L3.12627 24.3395C2.94428 24.1088 2.7692 23.8731 2.60132 23.6329L9.93772 19.7502L1.51662 21.8186C1.38554 21.5585 1.26227 21.2945 1.14708 21.0267L9.69403 18.9274L0.432445 18.9274C0.360831 18.6462 0.297759 18.3619 0.243496 18.0749L9.69153 18.0749L0.00180194 15.6949C0.000602034 15.6197 0 15.5443 0 15.4688C0 15.25 0.00506126 15.0322 0.0150824 14.8155L9.93636 17.2524L0.386009 12.198C0.45555 11.9082 0.534137 11.6215 0.621487 11.3382L10.4024 16.5147L1.78367 8.61412C1.9303 8.34952 2.08515 8.08939 2.24792 7.83402L11.0591 15.9109L4.33623 5.23695C4.55392 5.019 4.77847 4.80691 5.00957 4.60095L11.8637 15.4834L8.05526 2.45448C8.32931 2.30413 8.60851 2.16085 8.89254 2.02491Z" fill="#0BA5EC"/>
</svg>
