<svg width="24" height="24" viewBox="0 0 24 24" fill="none" xmlns="http://www.w3.org/2000/svg">
<g clip-path="url(#clip0_660_2922)">
<path d="M12.2441 9.81982V14.4671H18.8341C18.5448 15.9617 17.6764 17.2272 16.374 18.0781L20.348 21.1C22.6634 19.0055 23.9992 15.9291 23.9992 12.2745C23.9992 11.4236 23.9213 10.6053 23.7766 9.81995L12.2441 9.81982Z" fill="#4285F4"/>
<path d="M5.38165 14.2856L4.48536 14.958L1.31274 17.3798C3.32759 21.2962 7.45718 24.0017 12.2438 24.0017C15.5499 24.0017 18.3216 22.9326 20.3477 21.0999L16.3737 18.078C15.2827 18.798 13.8912 19.2344 12.2438 19.2344C9.06014 19.2344 6.35519 17.129 5.38666 14.2926L5.38165 14.2856Z" fill="#34A853"/>
<path d="M1.3137 6.62305C0.478861 8.23753 0.000244141 10.0594 0.000244141 12.0012C0.000244141 13.943 0.478861 15.7648 1.3137 17.3793C1.3137 17.3902 5.388 14.2811 5.388 14.2811C5.14311 13.5611 4.99835 12.7975 4.99835 12.0011C4.99835 11.2046 5.14311 10.441 5.388 9.721L1.3137 6.62305Z" fill="#FBBC05"/>
<path d="M12.2441 4.7782C14.0474 4.7782 15.6504 5.3891 16.9305 6.56731L20.437 3.13097C18.3108 1.18917 15.5502 0 12.2441 0C7.45743 0 3.32759 2.69456 1.31274 6.62186L5.38692 9.72007C6.35533 6.88366 9.06039 4.7782 12.2441 4.7782Z" fill="#EA4335"/>
</g>
<defs>
<clipPath id="clip0_660_2922">
<rect width="24" height="24" fill="white"/>
</clipPath>
</defs>
</svg>
