<svg width="221" height="37" viewBox="0 0 221 37" fill="none" xmlns="http://www.w3.org/2000/svg">
<path d="M0 2.31967L5.53312 34.9529L156.557 32.6332L151.023 0L0 2.31967Z" fill="#5E4F23"/>
<path d="M11.6441 28.2273V5.57127H19.9961C21.0841 5.57127 22.1508 5.66727 23.1961 5.85927C24.2415 6.02994 25.2441 6.37127 26.2041 6.88327C27.9108 7.75794 29.1908 9.04861 30.0441 10.7553C30.9188 12.4619 31.3561 14.5206 31.3561 16.9313C31.3561 20.5793 30.4068 23.3739 28.5081 25.3153C26.6308 27.2566 23.8681 28.2273 20.2201 28.2273H11.6441ZM20.2521 24.1313C20.5508 24.1313 20.8708 24.1099 21.2121 24.0673C21.5535 24.0246 21.8948 23.9713 22.2361 23.9073C22.5775 23.8219 22.8975 23.7259 23.1961 23.6193C23.4948 23.5126 23.7508 23.3953 23.9641 23.2673C24.8388 22.6699 25.4895 21.8273 25.9161 20.7393C26.3641 19.6299 26.5881 18.3606 26.5881 16.9313C26.5881 15.8006 26.4601 14.7766 26.2041 13.8593C25.9481 12.9419 25.5535 12.1633 25.0201 11.5233C24.4228 10.8193 23.6548 10.3393 22.7161 10.0833C21.7988 9.82727 20.8921 9.69927 19.9961 9.69927H16.2841V24.1313H20.2521Z" fill="#FFFDEA"/>
<path d="M42.6374 24.8033C43.2774 24.8033 43.8214 24.7073 44.2694 24.5153C44.7387 24.3019 45.1227 23.9606 45.4214 23.4913H50.1574C49.9227 24.3659 49.5601 25.1233 49.0694 25.7633C48.6001 26.4033 48.0241 26.9259 47.3414 27.3313C46.6801 27.7366 45.9441 28.0353 45.1334 28.2273C44.3227 28.3979 43.4694 28.4833 42.5734 28.4833C39.8427 28.4833 37.7734 27.7153 36.3654 26.1793C34.9787 24.6433 34.2854 22.4886 34.2854 19.7153C34.2854 18.4566 34.4667 17.2939 34.8294 16.2273C35.2134 15.1606 35.7467 14.2433 36.4294 13.4753C37.1121 12.6859 37.9547 12.0779 38.9574 11.6513C39.9814 11.2246 41.1441 11.0113 42.4454 11.0113C43.9601 11.0113 45.2721 11.2779 46.3814 11.8113C47.4907 12.3446 48.3654 13.0806 49.0054 14.0193C49.6667 14.9366 50.1041 16.0139 50.3174 17.2513C50.5521 18.4886 50.5521 19.8113 50.3174 21.2193H38.7974C38.8827 22.2219 39.2347 23.0753 39.8534 23.7793C40.4721 24.4619 41.4001 24.8033 42.6374 24.8033ZM46.1254 18.1153C46.1254 17.5819 46.0294 17.1126 45.8374 16.7073C45.6454 16.2806 45.3894 15.9393 45.0694 15.6833C44.7494 15.4059 44.3654 15.2033 43.9174 15.0753C43.4907 14.9473 43.0427 14.8833 42.5734 14.8833C41.4427 14.9046 40.5574 15.2139 39.9174 15.8113C39.2987 16.3873 38.9361 17.1553 38.8294 18.1153H46.1254Z" fill="#FFFDEA"/>
<path d="M66.4181 26.4993C65.7781 27.2246 65.0101 27.7366 64.1141 28.0353C63.2181 28.3339 62.2475 28.4833 61.2021 28.4833C60.1568 28.4833 59.1328 28.3233 58.1301 28.0033C57.1488 27.6619 56.2955 27.1179 55.5701 26.3713C54.7595 25.5179 54.1941 24.5366 53.8741 23.4273C53.5541 22.3179 53.3941 21.1766 53.3941 20.0033C53.3941 17.2299 54.1621 15.0113 55.6981 13.3473C56.3595 12.6219 57.2128 12.0566 58.2581 11.6513C59.3248 11.2459 60.4661 11.0539 61.6821 11.0753C62.4715 11.0326 63.3248 11.1713 64.2421 11.4913C65.1595 11.8113 65.9488 12.3446 66.6101 13.0913L67.0901 11.3633H70.9941V27.1713C70.9941 27.8539 70.9515 28.5259 70.8661 29.1873C70.8021 29.8699 70.6848 30.5206 70.5141 31.1393C70.3435 31.7793 70.0875 32.3873 69.7461 32.9633C69.3621 33.6673 68.8928 34.2646 68.3381 34.7553C67.8048 35.2459 67.2075 35.6513 66.5461 35.9713C65.8848 36.3126 65.1808 36.5579 64.4341 36.7073C63.6875 36.8566 62.9301 36.9313 62.1621 36.9313C61.1808 36.9313 60.2421 36.8139 59.3461 36.5793C58.4501 36.3659 57.6288 36.0033 56.8821 35.4913C56.1568 35.0006 55.5488 34.3713 55.0581 33.6033C54.5888 32.8353 54.2795 31.9179 54.1301 30.8513H58.9301C59.0155 31.3633 59.3568 31.8219 59.9541 32.2273C60.5515 32.6326 61.2768 32.8353 62.1301 32.8353C63.0475 32.8353 63.7941 32.6539 64.3701 32.2913C64.9675 31.9286 65.4155 31.4486 65.7141 30.8513C66.0128 30.2539 66.2048 29.5713 66.2901 28.8033C66.3755 28.0353 66.4181 27.2673 66.4181 26.4993ZM62.2261 24.4833C62.9301 24.4833 63.5488 24.3553 64.0821 24.0993C64.6368 23.8433 65.0848 23.5019 65.4261 23.0753C65.7675 22.6273 66.0235 22.1153 66.1941 21.5393C66.3648 20.9419 66.4501 20.3126 66.4501 19.6513C66.4501 18.3286 66.0768 17.2406 65.3301 16.3873C64.6048 15.5126 63.5595 15.0646 62.1941 15.0433C61.4901 15.0433 60.8608 15.1713 60.3061 15.4273C59.7728 15.6833 59.3248 16.0246 58.9621 16.4513C58.6208 16.8779 58.3648 17.3793 58.1941 17.9553C58.0235 18.5313 57.9381 19.1499 57.9381 19.8113C57.9381 20.5153 58.0235 21.1553 58.1941 21.7313C58.3861 22.2859 58.6635 22.7766 59.0261 23.2033C59.3888 23.6086 59.8368 23.9286 60.3701 24.1633C60.9035 24.3766 61.5221 24.4833 62.2261 24.4833Z" fill="#FFFDEA"/>
<path d="M85.7669 26.1473C85.1269 27.0006 84.3482 27.6086 83.4309 27.9713C82.5136 28.3339 81.4469 28.5046 80.2309 28.4833C78.6736 28.4406 77.3722 28.0033 76.3269 27.1713C75.7722 26.7019 75.3349 26.1473 75.0149 25.5073C74.7162 24.8459 74.5669 24.0673 74.5669 23.1713C74.5882 22.2539 74.7909 21.4433 75.1749 20.7393C75.5802 20.0139 76.1882 19.4166 76.9989 18.9473C77.6816 18.5846 78.4496 18.3286 79.3029 18.1793C80.1776 18.0299 81.1269 17.9553 82.1509 17.9553H85.6069C85.6709 16.9099 85.4256 16.1313 84.8709 15.6193C84.3376 15.0859 83.5802 14.8086 82.5989 14.7873C82.2789 14.7873 81.9482 14.8086 81.6069 14.8513C81.2656 14.8939 80.9456 14.9793 80.6469 15.1073C80.3696 15.2353 80.1242 15.4166 79.9109 15.6513C79.7189 15.8646 79.5909 16.1313 79.5269 16.4513H74.8869C74.9936 15.4273 75.2709 14.5739 75.7189 13.8913C76.1882 13.1873 76.7749 12.6219 77.4789 12.1953C78.1829 11.7686 78.9616 11.4699 79.8149 11.2993C80.6896 11.1073 81.5856 11.0113 82.5029 11.0113C83.0149 11.0113 83.5376 11.0433 84.0709 11.1073C84.6042 11.1499 85.1269 11.2566 85.6389 11.4273C86.1509 11.5766 86.6309 11.7899 87.0789 12.0673C87.5482 12.3233 87.9856 12.6646 88.3909 13.0913C89.1162 13.9233 89.5642 14.8833 89.7349 15.9713C89.9269 17.0379 90.0122 18.0833 89.9909 19.1073V28.2273H85.8629L85.7669 26.1473ZM85.6069 20.7713H82.3109C81.9909 20.7713 81.6282 20.8033 81.2229 20.8673C80.8176 20.9313 80.4656 21.0486 80.1669 21.2193C79.8682 21.3899 79.6122 21.6139 79.3989 21.8913C79.2069 22.1686 79.1109 22.5099 79.1109 22.9153C79.1109 23.2566 79.1749 23.5553 79.3029 23.8113C79.4522 24.0673 79.6336 24.2806 79.8469 24.4513C80.0816 24.6219 80.3589 24.7606 80.6789 24.8673C80.9989 24.9526 81.3189 24.9953 81.6389 24.9953C82.2576 25.0166 82.8336 24.9099 83.3669 24.6753C83.9216 24.4406 84.4016 24.1099 84.8069 23.6833C85.0629 23.3419 85.2549 22.9579 85.3829 22.5313C85.5322 22.0833 85.6069 21.4966 85.6069 20.7713Z" fill="#FFFDEA"/>
<path d="M98.7026 13.5073C100.068 11.8646 101.753 11.0326 103.759 11.0113C104.847 10.9899 105.807 11.1713 106.639 11.5553C107.471 11.9179 108.143 12.4193 108.655 13.0593C109.273 13.8059 109.7 14.6806 109.935 15.6833C110.169 16.6646 110.287 17.7633 110.287 18.9793V28.2273H105.743V19.3313C105.743 18.7339 105.679 18.1686 105.551 17.6353C105.444 17.0806 105.252 16.6113 104.975 16.2273C104.697 15.8219 104.324 15.5233 103.855 15.3313C103.407 15.1393 102.895 15.0433 102.319 15.0433C101.593 15.0646 100.975 15.2246 100.463 15.5233C99.972 15.8219 99.5986 16.2059 99.3426 16.6753C99.0866 17.1233 98.9053 17.6353 98.7986 18.2113C98.7133 18.7659 98.6706 19.3313 98.6706 19.9073V28.2273H94.1586V11.3633H98.4786L98.7026 13.5073Z" fill="#FFFDEA"/>
<path d="M122.232 28.4833C119.502 28.4833 117.4 27.7153 115.928 26.1793C114.456 24.6219 113.72 22.4673 113.72 19.7153C113.72 18.3926 113.912 17.1979 114.296 16.1313C114.702 15.0433 115.256 14.1153 115.96 13.3473C116.686 12.5793 117.571 12.0033 118.616 11.6193C119.683 11.2139 120.888 11.0113 122.232 11.0113C123.555 11.0113 124.739 11.2139 125.784 11.6193C126.851 12.0033 127.747 12.5793 128.472 13.3473C129.219 14.1153 129.784 15.0433 130.168 16.1313C130.574 17.1979 130.776 18.3926 130.776 19.7153C130.776 22.4886 130.03 24.6433 128.536 26.1793C127.064 27.7153 124.963 28.4833 122.232 28.4833ZM122.232 15.0433C120.846 15.0433 119.822 15.4913 119.16 16.3873C118.499 17.2833 118.168 18.4033 118.168 19.7473C118.168 21.1126 118.499 22.2433 119.16 23.1393C119.822 24.0353 120.846 24.4833 122.232 24.4833C123.619 24.4833 124.632 24.0353 125.272 23.1393C125.912 22.2433 126.232 21.1126 126.232 19.7473C126.232 18.4033 125.912 17.2833 125.272 16.3873C124.632 15.4913 123.619 15.0433 122.232 15.0433Z" fill="#FFFDEA"/>
<path d="M145.61 11.3633H150.57L144.362 28.2273H138.698L132.522 11.3633H137.514L141.578 23.8753L145.61 11.3633Z" fill="#FFFDEA"/>
<path d="M162.648 5.57127C163.245 5.57127 163.843 5.59261 164.44 5.63527C165.037 5.65661 165.624 5.73127 166.2 5.85927C166.776 5.98727 167.331 6.17927 167.864 6.43527C168.419 6.66994 168.931 7.00061 169.4 7.42727C170.147 8.10994 170.68 8.93127 171 9.89127C171.32 10.8299 171.469 11.7899 171.448 12.7713C171.427 14.0939 171.192 15.2139 170.744 16.1313C170.317 17.0486 169.731 17.8273 168.984 18.4673C168.301 19.0219 167.512 19.4166 166.616 19.6513L171.64 28.2273H166.456L161.88 20.0993H158.264V28.2273H153.624V5.57127H162.648ZM162.68 16.1953C163.256 16.1953 163.8 16.1419 164.312 16.0353C164.824 15.9286 165.261 15.7579 165.624 15.5233C166.008 15.2673 166.307 14.9366 166.52 14.5313C166.755 14.1046 166.883 13.5713 166.904 12.9313C166.925 12.2486 166.829 11.6939 166.616 11.2673C166.403 10.8406 166.104 10.5099 165.72 10.2753C165.357 10.0406 164.92 9.89127 164.408 9.82727C163.917 9.74194 163.373 9.69927 162.776 9.69927H158.264V16.1953H162.68Z" fill="#FFDE32"/>
<path d="M182.742 24.8033C183.382 24.8033 183.926 24.7073 184.374 24.5153C184.844 24.3019 185.228 23.9606 185.526 23.4913H190.262C190.028 24.3659 189.665 25.1233 189.174 25.7633C188.705 26.4033 188.129 26.9259 187.446 27.3313C186.785 27.7366 186.049 28.0353 185.238 28.2273C184.428 28.3979 183.574 28.4833 182.678 28.4833C179.948 28.4833 177.878 27.7153 176.47 26.1793C175.084 24.6433 174.39 22.4886 174.39 19.7153C174.39 18.4566 174.572 17.2939 174.934 16.2273C175.318 15.1606 175.852 14.2433 176.534 13.4753C177.217 12.6859 178.06 12.0779 179.062 11.6513C180.086 11.2246 181.249 11.0113 182.55 11.0113C184.065 11.0113 185.377 11.2779 186.486 11.8113C187.596 12.3446 188.47 13.0806 189.11 14.0193C189.772 14.9366 190.209 16.0139 190.422 17.2513C190.657 18.4886 190.657 19.8113 190.422 21.2193H178.902C178.988 22.2219 179.34 23.0753 179.958 23.7793C180.577 24.4619 181.505 24.8033 182.742 24.8033ZM186.23 18.1153C186.23 17.5819 186.134 17.1126 185.942 16.7073C185.75 16.2806 185.494 15.9393 185.174 15.6833C184.854 15.4059 184.47 15.2033 184.022 15.0753C183.596 14.9473 183.148 14.8833 182.678 14.8833C181.548 14.9046 180.662 15.2139 180.022 15.8113C179.404 16.3873 179.041 17.1553 178.934 18.1153H186.23Z" fill="#FFDE32"/>
<path d="M200.379 14.6273C200.059 14.6273 199.75 14.6486 199.451 14.6913C199.174 14.7339 198.918 14.8086 198.683 14.9153C198.448 15.0006 198.256 15.1499 198.107 15.3633C197.958 15.5553 197.894 15.8113 197.915 16.1313C197.936 16.4939 198.075 16.7819 198.331 16.9953C198.608 17.2086 198.992 17.3793 199.483 17.5073C199.952 17.6353 200.475 17.7633 201.051 17.8913C201.627 17.9979 202.192 18.1153 202.747 18.2433C203.302 18.3713 203.846 18.5206 204.379 18.6913C204.912 18.8619 205.382 19.0753 205.787 19.3313C206.342 19.6726 206.8 20.1526 207.163 20.7713C207.526 21.3899 207.696 22.1473 207.675 23.0433C207.675 23.9179 207.526 24.6753 207.227 25.3153C206.95 25.9339 206.566 26.4673 206.075 26.9153C205.456 27.4699 204.678 27.8753 203.739 28.1313C202.8 28.3659 201.851 28.4833 200.891 28.4833C199.782 28.4833 198.758 28.3659 197.819 28.1313C196.902 27.8966 196.059 27.4806 195.291 26.8833C194.736 26.4353 194.267 25.8913 193.883 25.2513C193.52 24.5899 193.307 23.8006 193.243 22.8833H197.787C197.915 23.6086 198.267 24.1099 198.843 24.3873C199.44 24.6646 200.144 24.8033 200.955 24.8033C201.19 24.8033 201.435 24.7926 201.691 24.7713C201.968 24.7286 202.214 24.6646 202.427 24.5793C202.662 24.4726 202.854 24.3233 203.003 24.1313C203.174 23.9179 203.259 23.6939 203.259 23.4593C203.28 22.9046 203.088 22.5099 202.683 22.2753C202.299 22.0406 201.883 21.8806 201.435 21.7953C200.987 21.6886 200.507 21.5819 199.995 21.4753C199.483 21.3686 198.971 21.2619 198.459 21.1553C197.968 21.0486 197.478 20.9206 196.987 20.7713C196.496 20.6006 196.048 20.3766 195.643 20.0993C195.024 19.7153 194.502 19.2033 194.075 18.5633C193.67 17.9233 193.499 17.0806 193.563 16.0353C193.606 15.1179 193.83 14.3393 194.235 13.6993C194.662 13.0379 195.184 12.5153 195.803 12.1313C196.443 11.7259 197.158 11.4379 197.947 11.2673C198.758 11.0966 199.579 11.0113 200.411 11.0113C201.328 11.0113 202.192 11.1073 203.003 11.2993C203.814 11.4913 204.518 11.8006 205.115 12.2273C205.734 12.6539 206.224 13.2086 206.587 13.8913C206.971 14.5739 207.184 15.4059 207.227 16.3873H202.875C202.79 15.6833 202.512 15.2139 202.043 14.9793C201.595 14.7446 201.04 14.6273 200.379 14.6273Z" fill="#FFDE32"/>
<path d="M216.51 15.2993V22.1153C216.51 23.5659 217.246 24.2913 218.718 24.2913H220.382V28.2273H218.27C216.03 28.3126 214.419 27.8859 213.438 26.9473C212.478 26.0086 211.998 24.5899 211.998 22.6913V15.2993H209.438V11.3633H211.998V6.78727H216.51V11.3633H220.542V15.2993H216.51Z" fill="#FFDE32"/>
</svg>
