<svg width="44" height="44" viewBox="0 0 44 44" fill="none" xmlns="http://www.w3.org/2000/svg">
<g clip-path="url(#clip0_304_596)">
<rect width="44" height="44" rx="22" fill="url(#paint0_linear_304_596)"/>
<path d="M18.2771 31.1353C19.5397 29.0065 22.4387 24.9257 29.3432 19.19C39.7618 10.5349 29.9221 2.62936 19.3566 6.8488C18.2263 7.30023 15.0931 5.49742 12.1922 7.40023C10.3208 8.62769 11.0497 9.58838 10.3212 10.5499C9.59279 11.5115 6.78284 11.4565 6.16829 13.9525C5.80433 15.4313 6.81385 16.9794 6.67936 18.0924C6.54488 19.2053 5.48025 20.2091 5.43004 21.6783C5.4083 22.2988 5.50745 22.9176 5.72181 23.4992C5.93618 24.0809 6.26157 24.6141 6.6794 25.0683C7.09722 25.5225 7.59931 25.8889 8.15696 26.1465C8.71462 26.4041 9.31693 26.5479 9.92948 26.5697C9.93499 27.7964 10.4083 28.9734 11.2505 29.8547C12.0927 30.7361 13.2386 31.2535 14.4488 31.2989C15.2247 31.3272 15.9953 31.1577 16.6898 30.8059C17.3794 31.449 17.9712 31.651 18.2771 31.1353Z" fill="url(#paint1_linear_304_596)"/>
<path d="M20 6.0359C18.3092 7.18711 16.2174 10.9628 17.1356 16.0312C17.3359 17.1371 16.71 17.4682 16.1746 16.104C14.5592 11.9887 14.3719 8.27726 17.1356 6.50192C17.6161 6.19488 17.8906 6.44363 18.2339 6.41347C18.8866 6.35605 19.7655 5.86511 20 6.0359Z" fill="black"/>
<path d="M18.7589 28.6207C18.7589 27.32 18.7134 20.9041 18.7156 20.7957C15.0386 21.3221 15.113 14.5292 18.8333 16.1913C19.6518 16.6972 21.9583 16.1913 21.7351 12C25.753 16.1913 30.4178 11.3028 30.8178 15.2863C31.3641 20.7256 30.8145 26.418 27.334 26.4184C26.9532 26.4139 26.5736 26.3771 26.1994 26.3083V28.6207C26.1994 30.066 28.878 30.7886 28.878 30.7886C28.878 30.7886 24.2512 35.0233 22.3304 34.9999C20.4095 34.9765 16.0803 30.7886 16.0803 30.7886C16.0803 30.7886 18.7589 30.066 18.7589 28.6207Z" fill="url(#paint2_linear_304_596)"/>
<g style="mix-blend-mode:multiply">
<path d="M25.8946 26.4979C24.1427 26.0485 22.4806 25.2002 21 24C21 24 22.2337 27.5271 25.898 28.1733L25.8946 26.4979Z" fill="#FFDBC9"/>
</g>
<path d="M35.3981 35.25C36.4546 37.6683 37 45 37 45H7C7 45 7.54539 37.6683 8.60194 35.25C9.52757 33.1316 15.627 30.6991 17.4145 30C18.4466 31.1892 19.9256 31.95 22 31.95C24.0744 31.95 25.5534 31.1892 26.5855 30C28.373 30.6991 34.4724 33.1316 35.3981 35.25Z" fill="url(#paint3_linear_304_596)"/>
</g>
<defs>
<linearGradient id="paint0_linear_304_596" x1="22" y1="0" x2="22" y2="44" gradientUnits="userSpaceOnUse">
<stop stop-color="#343434"/>
<stop offset="1" stop-color="#665654"/>
</linearGradient>
<linearGradient id="paint1_linear_304_596" x1="19.1035" y1="31.4734" x2="20.0109" y2="5.48927" gradientUnits="userSpaceOnUse">
<stop stop-color="#E6864E"/>
<stop offset="1" stop-color="#E67240"/>
</linearGradient>
<linearGradient id="paint2_linear_304_596" x1="23.5" y1="12" x2="23.5" y2="35" gradientUnits="userSpaceOnUse">
<stop stop-color="#FFE0CC"/>
<stop offset="1" stop-color="#FFEADB"/>
</linearGradient>
<linearGradient id="paint3_linear_304_596" x1="22" y1="30" x2="22" y2="45" gradientUnits="userSpaceOnUse">
<stop stop-color="#130027"/>
<stop offset="1" stop-color="#130017"/>
</linearGradient>
<clipPath id="clip0_304_596">
<rect width="44" height="44" rx="22" fill="white"/>
</clipPath>
</defs>
</svg>
