<svg width="44" height="44" viewBox="0 0 44 44" fill="none" xmlns="http://www.w3.org/2000/svg">
<g clip-path="url(#clip0_304_552)">
<rect width="44" height="44" rx="22" transform="matrix(-1 0 0 1 44 0)" fill="url(#paint0_linear_304_552)"/>
<path d="M30.615 31.3624C28.0125 33.3832 25.4099 35 22.8075 35C20.205 35 17.6025 33.3832 15 31.3624C17.1451 30.6652 18.2334 29.6244 18.265 28.2401C18.265 27.9934 18.2632 27.6429 18.2617 26.985C18.2617 26.8805 18.2615 26.7735 18.261 26.664C18.2567 24.8997 18.2498 22.5717 18.24 20.2072C16.2055 17.3916 16.9529 14.0906 17.5904 14.1729C18.372 14.2744 25.1436 7.41332 26.4425 7.06153C27.7414 6.70974 31.0409 7.84544 31.6087 11.0094C32.1765 14.1734 32.4138 22.1485 30.2601 25.3325C29.6472 26.2385 28.6819 26.5929 27.3642 26.3957C27.3624 27.0579 27.3587 27.4295 27.35 28.1795C27.3669 29.6268 28.4552 30.6659 30.615 31.3624Z" fill="url(#paint1_linear_304_552)"/>
<path d="M27 27C23.9444 26.5833 22 25 22 25C22 25 24.2222 28.3333 27 29V27Z" fill="#FC9F6A"/>
<path d="M16.8745 20.3415C15.8938 17.8761 11.9637 12.8551 15.3514 9.73062C16.4902 3.92803 22.7816 4.57033 26.9807 5.90939C29.8028 6.80939 31.9341 8.58751 32.3896 7.24845C35.2364 9.73062 33.8107 12.1583 31.9341 12.8551C30.2309 13.4874 27.3507 14.1198 22.4534 13.5246C21.5786 13.4182 21.7618 16.2188 21.2943 16.5216C20.593 16.9758 20.0487 14.1198 18.1259 14.9774C16.2032 15.8349 17.3442 19.8114 19.4082 19.8114C20.1199 19.8114 20.4757 21.8567 18.5541 22.8238C17.1592 23.5403 17.5118 21.9434 16.8745 20.3415Z" fill="black"/>
<path d="M7.1875 35.5239C5.79917 38.39 5 45 5 45H40C40 45 39.2005 38.3893 37.8125 35.5239C36.4245 32.6586 28.3188 30.001 28.3188 30.001C23.8398 31.7768 21.0988 31.7768 16.6855 30C16.6855 30 8.57583 32.6579 7.1875 35.5239Z" fill="black"/>
<path d="M20.8333 30.7732L20 45H24L23.1667 30.7732C23.1667 30.7732 22.3888 30 22 30C21.6112 30 20.8333 30.7732 20.8333 30.7732Z" fill="url(#paint2_linear_304_552)"/>
<path d="M20.0002 34L23 32.466L22.8882 30.8442C22.2947 30.2814 21.8495 30 21.5528 30C21.2561 30 20.811 30.2814 20.2175 30.8442L20 34H20.0002Z" fill="#645050"/>
<path d="M22 30.1862L23.4634 33L28 30.0312L26.6829 28L22 29.847L17.3171 28L16 30.0312L20.5366 33L22 30.1862Z" fill="#FFFDEA"/>
</g>
<defs>
<linearGradient id="paint0_linear_304_552" x1="22" y1="0" x2="22" y2="44" gradientUnits="userSpaceOnUse">
<stop stop-color="#8C8C8C"/>
<stop offset="1" stop-color="#837674"/>
</linearGradient>
<linearGradient id="paint1_linear_304_552" x1="23.5" y1="7" x2="23.5" y2="35" gradientUnits="userSpaceOnUse">
<stop stop-color="#F7B186"/>
<stop offset="1" stop-color="#FFC299"/>
</linearGradient>
<linearGradient id="paint2_linear_304_552" x1="22" y1="30" x2="22" y2="45" gradientUnits="userSpaceOnUse">
<stop stop-color="#806A6A"/>
<stop offset="1" stop-color="#665654"/>
</linearGradient>
<clipPath id="clip0_304_552">
<rect width="44" height="44" rx="22" transform="matrix(-1 0 0 1 44 0)" fill="white"/>
</clipPath>
</defs>
</svg>
