<svg width="24" height="24" viewBox="0 0 24 24" fill="none" xmlns="http://www.w3.org/2000/svg">
<g clip-path="url(#clip0_660_1888)">
<path d="M0 12C0 5.3724 5.3712 0 12 0C18.6264 0 24 5.3724 24 12C24 18.6276 18.6264 24 12 24C5.3712 24 0 18.6276 0 12Z" fill="#FC3F1D"/>
<path d="M13.3222 7.66459H12.3982C10.7042 7.66459 9.81319 8.52259 9.81319 9.78759C9.81319 11.2176 10.4292 11.8876 11.6942 12.7466L12.7392 13.4506L9.73619 17.9376H7.49219L10.1872 13.9236C8.63719 12.8126 7.76719 11.7336 7.76719 9.90859C7.76719 7.62059 9.36219 6.05859 12.3872 6.05859H15.3902V17.9266H13.3222V7.66459Z" fill="#FFFDEA"/>
</g>
<defs>
<clipPath id="clip0_660_1888">
<rect width="24" height="24" fill="white"/>
</clipPath>
</defs>
</svg>
