<svg width="24" height="24" viewBox="0 0 24 24" fill="none" xmlns="http://www.w3.org/2000/svg">
<path d="M24 19.125C24 19.8212 23.7235 20.4889 23.2312 20.9812C22.7389 21.4734 22.0712 21.75 21.375 21.75C20.6788 21.75 20.0111 21.4734 19.5189 20.9812C19.0266 20.4889 18.75 19.8212 18.75 19.125C18.75 16.9153 20.8181 15.2353 20.9063 15.1641C21.0393 15.0576 21.2046 14.9995 21.375 14.9995C21.5454 14.9995 21.7107 15.0576 21.8438 15.1641C21.9319 15.2353 24 16.9153 24 19.125ZM12.421 11.6709C12.5779 11.5134 12.6847 11.313 12.7278 11.0949C12.7708 10.8767 12.7483 10.6507 12.6631 10.4454C12.5778 10.2401 12.4336 10.0646 12.2487 9.94115C12.0638 9.81771 11.8464 9.75182 11.6241 9.75182C11.4017 9.75182 11.1844 9.81771 10.9995 9.94115C10.8146 10.0646 10.6704 10.2401 10.5851 10.4454C10.4998 10.6507 10.4773 10.8767 10.5204 11.0949C10.5635 11.313 10.6703 11.5134 10.8272 11.6709C10.9317 11.7758 11.0559 11.859 11.1927 11.9158C11.3294 11.9726 11.476 12.0018 11.6241 12.0018C11.7722 12.0018 11.9188 11.9726 12.0555 11.9158C12.1923 11.859 12.3164 11.7758 12.421 11.6709ZM21.5306 11.0466L11.4535 0.969374C11.3128 0.828828 11.1221 0.749878 10.9233 0.749878C10.7245 0.749878 10.5338 0.828828 10.3931 0.969374L6.58596 4.78125L10.3763 8.57062C10.9308 8.27052 11.5748 8.18004 12.1906 8.31573C12.8063 8.45142 13.3527 8.80421 13.7297 9.30959C14.1067 9.81498 14.2892 10.4392 14.2439 11.0681C14.1985 11.697 13.9283 12.2885 13.4826 12.7346C13.037 13.1806 12.4457 13.4513 11.8168 13.4973C11.188 13.5432 10.5636 13.3612 10.0579 12.9846C9.55218 12.608 9.1989 12.062 9.06267 11.4464C8.92644 10.8308 9.01635 10.1867 9.31596 9.63187L5.52565 5.83687L1.40627 9.95344C0.984347 10.3754 0.747314 10.9477 0.747314 11.5444C0.747314 12.1411 0.984347 12.7134 1.40627 13.1353L9.36471 21.0938C9.78666 21.5157 10.3589 21.7527 10.9556 21.7527C11.5524 21.7527 12.1246 21.5157 12.5466 21.0938L21.5306 12.1097C21.6007 12.04 21.6562 11.9572 21.6941 11.8659C21.732 11.7747 21.7516 11.6769 21.7516 11.5781C21.7516 11.4793 21.732 11.3815 21.6941 11.2903C21.6562 11.1991 21.6007 11.1163 21.5306 11.0466ZM4.28065 2.46937C4.13992 2.32864 3.94904 2.24958 3.75002 2.24958C3.551 2.24958 3.36013 2.32864 3.2194 2.46937C3.07867 2.6101 2.9996 2.80098 2.9996 3C2.9996 3.19902 3.07867 3.38989 3.2194 3.53062L5.52565 5.83687L6.58596 4.78125L4.28065 2.46937Z" fill="#333333"/>
</svg>
