<svg width="24" height="24" viewBox="0 0 24 24" fill="none" xmlns="http://www.w3.org/2000/svg">
<path d="M15.6616 18.1045C15.8783 18.3127 16 18.5951 16 18.8896C16 19.1841 15.8783 19.4665 15.6616 19.6748C15.445 19.883 15.1511 20 14.8447 20C14.5383 20 14.2445 19.883 14.0278 19.6748L6.33921 12.2851C6.23169 12.1822 6.14638 12.0598 6.08817 11.9251C6.02996 11.7903 6 11.6459 6 11.5C6 11.3541 6.02996 11.2097 6.08817 11.0749C6.14638 10.9402 6.23169 10.8178 6.33921 10.7149L14.0278 3.32522C14.2445 3.11698 14.5383 3 14.8447 3C15.1511 3 15.445 3.11698 15.6616 3.32522C15.8783 3.53345 16 3.81588 16 4.11037C16 4.40486 15.8783 4.68728 15.6616 4.89552L8.79091 11.4991L15.6616 18.1045Z" fill="#333333"/>
</svg>
