<svg width="24" height="24" viewBox="0 0 24 24" fill="none" xmlns="http://www.w3.org/2000/svg">
<path d="M16.6599 12.1928L8.97201 18.713C8.75537 18.8968 8.46155 19 8.15518 19C7.84881 19 7.55498 18.8968 7.33834 18.713C7.12171 18.5293 7 18.2801 7 18.0203C7 17.7604 7.12171 17.5112 7.33834 17.3275L14.2103 11.5008L7.34027 5.67251C7.233 5.58154 7.14791 5.47353 7.08985 5.35466C7.0318 5.2358 7.00192 5.1084 7.00192 4.97974C7.00192 4.85108 7.0318 4.72367 7.08985 4.60481C7.14791 4.48594 7.233 4.37794 7.34027 4.28696C7.44753 4.19598 7.57488 4.12381 7.71503 4.07458C7.85519 4.02534 8.0054 4 8.1571 4C8.3088 4 8.45901 4.02534 8.59917 4.07458C8.73932 4.12381 8.86667 4.19598 8.97393 4.28696L16.6618 10.8072C16.7692 10.8982 16.8543 11.0062 16.9124 11.1252C16.9704 11.2441 17.0002 11.3716 17 11.5003C16.9998 11.6291 16.9697 11.7565 16.9113 11.8753C16.8529 11.9941 16.7675 12.102 16.6599 12.1928Z" fill="#333333"/>
</svg>
