<svg width="25" height="24" viewBox="0 0 25 24" fill="none" xmlns="http://www.w3.org/2000/svg">
<path d="M22.25 3C22.25 2.80109 22.171 2.61032 22.0303 2.46967C21.8897 2.32902 21.6989 2.25 21.5 2.25C17.3675 2.25 13.1272 6.91031 10.7722 9.99656C9.93112 9.73898 9.04137 9.68224 8.1744 9.83089C7.30743 9.97954 6.48741 10.3294 5.7802 10.8525C5.07298 11.3755 4.49829 12.0571 4.10228 12.8426C3.70627 13.628 3.49999 14.4954 3.49999 15.375C3.49999 18.27 1.66811 19.5684 1.58093 19.6284C1.44789 19.7183 1.34718 19.8484 1.29362 19.9998C1.24006 20.1511 1.23647 20.3156 1.28337 20.4692C1.33028 20.6227 1.42521 20.7571 1.55421 20.8527C1.6832 20.9482 1.83946 20.9999 1.99999 21H9.12499C10.0046 21 10.872 20.7937 11.6574 20.3977C12.4428 20.0017 13.1245 19.427 13.6475 18.7198C14.1706 18.0126 14.5205 17.1926 14.6691 16.3256C14.8178 15.4586 14.761 14.5689 14.5034 13.7278C17.5906 11.3728 22.25 7.1325 22.25 3ZM12.1644 10.6453C12.4856 10.2291 12.8009 9.83687 13.1103 9.46875C13.8675 9.98035 14.5196 10.6324 15.0312 11.3897C14.6625 11.6984 14.2703 12.0138 13.8547 12.3356C13.4176 11.6586 12.8414 11.0824 12.1644 10.6453ZM16.1675 10.3941C15.6013 9.59512 14.9039 8.89778 14.105 8.33156C17.0844 5.09438 19.3316 4.11281 20.6581 3.84C20.3909 5.1675 19.4047 7.41469 16.1675 10.3941Z" fill="#FFDE32"/>
</svg>
