<svg width="16" height="17" viewBox="0 0 16 17" fill="none" xmlns="http://www.w3.org/2000/svg">
<path d="M9.51688 3.30189C9.53385 3.23844 9.56316 3.17895 9.60313 3.12683C9.64311 3.0747 9.69296 3.03097 9.74984 2.99811C9.80672 2.96526 9.86951 2.94394 9.93464 2.93537C9.99976 2.92679 10.0659 2.93114 10.1294 2.94814C11.0563 3.18999 11.902 3.67455 12.5794 4.35192C13.2567 5.02929 13.7413 5.87498 13.9831 6.8019C14.0001 6.86534 14.0045 6.93152 13.9959 6.99664C13.9873 7.06176 13.966 7.12456 13.9332 7.18144C13.9003 7.23832 13.8566 7.28817 13.8044 7.32814C13.7523 7.36811 13.6928 7.39742 13.6294 7.4144C13.5871 7.42549 13.5437 7.43116 13.5 7.43127C13.3899 7.4313 13.2829 7.395 13.1955 7.32798C13.1082 7.26097 13.0454 7.167 13.0169 7.06065C12.8197 6.30386 12.4243 5.61334 11.8714 5.0603C11.3184 4.50725 10.628 4.11169 9.87126 3.91439C9.80774 3.89749 9.74819 3.86823 9.696 3.82829C9.6438 3.78834 9.6 3.7385 9.56708 3.68161C9.53417 3.62473 9.51279 3.56191 9.50418 3.49675C9.49557 3.4316 9.49988 3.36538 9.51688 3.30189ZM9.37126 5.9144C10.2331 6.1444 10.7869 6.69877 11.0169 7.56065C11.0454 7.667 11.1082 7.76097 11.1955 7.82798C11.2829 7.895 11.3899 7.9313 11.5 7.93127C11.5437 7.93116 11.5871 7.92549 11.6294 7.9144C11.6928 7.89742 11.7523 7.86811 11.8044 7.82814C11.8566 7.78817 11.9003 7.73832 11.9332 7.68144C11.966 7.62456 11.9873 7.56176 11.9959 7.49664C12.0045 7.43152 12.0001 7.36534 11.9831 7.3019C11.6631 6.1044 10.8269 5.26814 9.62938 4.94814C9.56594 4.9312 9.49977 4.92691 9.43467 4.93553C9.36957 4.94415 9.30681 4.96551 9.24996 4.99839C9.19311 5.03127 9.1433 5.07502 9.10336 5.12715C9.06342 5.17928 9.03414 5.23876 9.01719 5.30221C9.00024 5.36565 8.99596 5.43181 9.00458 5.49692C9.0132 5.56202 9.03456 5.62478 9.06744 5.68163C9.10031 5.73848 9.14407 5.78829 9.1962 5.82823C9.24833 5.86817 9.30781 5.89745 9.37126 5.9144ZM13.8981 10.835L10.9538 9.51565L10.9456 9.51189C10.7928 9.44652 10.626 9.42028 10.4605 9.43556C10.2949 9.45084 10.1358 9.50715 9.99751 9.5994C9.98122 9.61015 9.96557 9.62184 9.95063 9.6344L8.42938 10.9313C7.46563 10.4631 6.47063 9.47565 6.00251 8.52439L7.30126 6.98002C7.31376 6.9644 7.32563 6.94877 7.33688 6.9319C7.42715 6.79396 7.48192 6.63585 7.49631 6.47163C7.5107 6.30741 7.48428 6.14218 7.41938 5.99064V5.98314L6.09626 3.03377C6.01047 2.83581 5.86296 2.6709 5.67575 2.56367C5.48854 2.45643 5.27166 2.41262 5.05751 2.43877C4.21061 2.55021 3.43324 2.96613 2.87059 3.60883C2.30794 4.25153 1.99847 5.07708 2.00001 5.93127C2.00001 10.8938 6.03751 14.9313 11 14.9313C11.8542 14.9328 12.6797 14.6233 13.3224 14.0607C13.9651 13.498 14.3811 12.7207 14.4925 11.8738C14.5187 11.6597 14.475 11.4429 14.3679 11.2557C14.2607 11.0685 14.096 10.9209 13.8981 10.835Z" fill="#FFDE32"/>
</svg>
