<svg width="24" height="25" viewBox="0 0 24 25" fill="none" xmlns="http://www.w3.org/2000/svg">
<path d="M22.5 20H21V13.25C21 13.2453 21 13.2416 21 13.2369C21 13.2322 21 13.2097 21 13.1966C21 13.1834 21 13.1703 21 13.1581C21.0005 13.1535 21.0005 13.1487 21 13.1441L19.5938 3.28813C19.541 2.92968 19.361 2.60221 19.0865 2.36566C18.8121 2.12911 18.4617 1.9993 18.0994 2H16.4006C16.0399 2.00155 15.6917 2.13237 15.4193 2.36871C15.1468 2.60506 14.9681 2.93127 14.9156 3.28813L13.8319 10.8734L10.2 8.15C10.0886 8.06643 9.95608 8.01554 9.81735 8.00303C9.67863 7.99053 9.53917 8.01689 9.41459 8.07918C9.29001 8.14147 9.18524 8.23722 9.11201 8.35571C9.03879 8.47419 9 8.61072 9 8.75V11.75L4.2 8.15C4.08857 8.06643 3.95608 8.01554 3.81735 8.00303C3.67863 7.99053 3.53917 8.01689 3.41459 8.07918C3.29001 8.14147 3.18524 8.23722 3.11201 8.35571C3.03879 8.47419 3 8.61072 3 8.75V20H1.5C1.30109 20 1.11032 20.079 0.96967 20.2197C0.829018 20.3603 0.75 20.5511 0.75 20.75C0.75 20.9489 0.829018 21.1397 0.96967 21.2803C1.11032 21.421 1.30109 21.5 1.5 21.5H22.5C22.6989 21.5 22.8897 21.421 23.0303 21.2803C23.171 21.1397 23.25 20.9489 23.25 20.75C23.25 20.5511 23.171 20.3603 23.0303 20.2197C22.8897 20.079 22.6989 20 22.5 20ZM10.125 17.75H7.5C7.30109 17.75 7.11032 17.671 6.96967 17.5303C6.82902 17.3897 6.75 17.1989 6.75 17C6.75 16.8011 6.82902 16.6103 6.96967 16.4697C7.11032 16.329 7.30109 16.25 7.5 16.25H10.125C10.3239 16.25 10.5147 16.329 10.6553 16.4697C10.796 16.6103 10.875 16.8011 10.875 17C10.875 17.1989 10.796 17.3897 10.6553 17.5303C10.5147 17.671 10.3239 17.75 10.125 17.75ZM16.5 17.75H13.875C13.6761 17.75 13.4853 17.671 13.3447 17.5303C13.204 17.3897 13.125 17.1989 13.125 17C13.125 16.8011 13.204 16.6103 13.3447 16.4697C13.4853 16.329 13.6761 16.25 13.875 16.25H16.5C16.6989 16.25 16.8897 16.329 17.0303 16.4697C17.171 16.6103 17.25 16.8011 17.25 17C17.25 17.1989 17.171 17.3897 17.0303 17.5303C16.8897 17.671 16.6989 17.75 16.5 17.75ZM16.0003 12.5L15.2006 11.9L16.4006 3.5H18.0994L19.3856 12.5H16.0003Z" fill="#FFFDEA"/>
</svg>
