<svg width="24" height="24" viewBox="0 0 24 24" fill="none" xmlns="http://www.w3.org/2000/svg">
<path d="M20.5612 3.82027C20.4303 3.76082 20.2851 3.74026 20.1428 3.76104C20.0005 3.78181 19.8672 3.84305 19.7587 3.93746C17.1337 6.20808 14.91 5.10746 12.3328 3.83152C9.66281 2.50871 6.63562 1.01152 3.25875 3.93746C3.17806 4.00739 3.11324 4.09375 3.06862 4.19076C3.024 4.28776 3.0006 4.39318 3 4.49996V20.25C3 20.4489 3.07902 20.6396 3.21967 20.7803C3.36032 20.9209 3.55109 21 3.75 21C3.94891 21 4.13968 20.9209 4.28033 20.7803C4.42098 20.6396 4.5 20.4489 4.5 20.25V16.1034C7.01156 14.1196 9.17531 15.1893 11.6672 16.4231C13.2047 17.1834 14.8603 18.0028 16.6359 18.0028C17.9419 18.0028 19.3116 17.5575 20.7441 16.3153C20.8247 16.2453 20.8896 16.159 20.9342 16.062C20.9788 15.965 21.0022 15.8595 21.0028 15.7528V4.49996C21.0021 4.35627 20.96 4.21582 20.8818 4.09533C20.8035 3.97483 20.6922 3.87936 20.5612 3.82027ZM4.5 14.2912V9.9262C6.07969 8.8687 7.56 8.83964 9 9.23808V13.7137C7.58156 13.3565 6.08156 13.379 4.5 14.2912ZM19.5 15.3984C17.9184 16.6471 16.4747 16.6846 15 16.2337V11.7646C12.9731 11.2021 11.0269 9.79589 9 9.23808V4.01902C9.86719 4.28433 10.7447 4.71745 11.6672 5.17402C12.7228 5.6962 13.8337 6.24558 15 6.53902V11.7646C16.4391 12.1631 17.9194 12.134 19.5 11.0756V15.3984Z" fill="#FFFDEA"/>
</svg>
