<svg width="17" height="16" viewBox="0 0 17 16" fill="none" xmlns="http://www.w3.org/2000/svg">
<path d="M14.5 3H2.5C2.36739 3 2.24021 3.05268 2.14645 3.14645C2.05268 3.24021 2 3.36739 2 3.5V12C2 12.2652 2.10536 12.5196 2.29289 12.7071C2.48043 12.8946 2.73478 13 3 13H14C14.2652 13 14.5196 12.8946 14.7071 12.7071C14.8946 12.5196 15 12.2652 15 12V3.5C15 3.36739 14.9473 3.24021 14.8536 3.14645C14.7598 3.05268 14.6326 3 14.5 3ZM6.66937 8L3 11.3631V4.63688L6.66937 8ZM7.40938 8.67813L8.15938 9.36875C8.25162 9.45343 8.37228 9.50041 8.4975 9.50041C8.62272 9.50041 8.74338 9.45343 8.83562 9.36875L9.58562 8.67813L13.2106 12H3.78562L7.40938 8.67813ZM10.3306 8L14 4.63625V11.3638L10.3306 8Z" fill="#FFFDEA"/>
</svg>
