<svg width="21" height="20" viewBox="0 0 21 20" fill="none" xmlns="http://www.w3.org/2000/svg">
<path d="M20.7081 0.886537C20.5919 0.786195 20.4505 0.71946 20.2992 0.693524C20.1479 0.667587 19.9923 0.683431 19.8494 0.739349L0.849978 8.17466C0.580714 8.27937 0.35275 8.46871 0.200407 8.71418C0.0480642 8.95966 -0.0204126 9.24798 0.00528594 9.53574C0.0309845 9.8235 0.149467 10.0951 0.342897 10.3097C0.536327 10.5243 0.794234 10.6703 1.07779 10.7256L6.0006 11.6922V17.1812C5.99963 17.4802 6.08848 17.7726 6.25564 18.0205C6.4228 18.2684 6.66056 18.4604 6.9381 18.5715C7.21522 18.6847 7.51997 18.7119 7.81274 18.6495C8.1055 18.5871 8.37272 18.4381 8.57967 18.2219L10.9534 15.76L14.7194 19.0562C14.9911 19.2972 15.3415 19.4306 15.7047 19.4312C15.8638 19.4311 16.022 19.4061 16.1734 19.3572C16.4209 19.2786 16.6434 19.1367 16.8189 18.9454C16.9944 18.7541 17.1168 18.5201 17.1737 18.2668L20.979 1.71247C21.0131 1.56318 21.0058 1.40743 20.9581 1.26193C20.9104 1.11643 20.824 0.986663 20.7081 0.886537ZM15.7065 17.9312L7.95529 11.1343L19.1115 3.13841L15.7065 17.9312Z" fill="#FFFDEA"/>
</svg>
