<svg width="16" height="17" viewBox="0 0 16 17" fill="none" xmlns="http://www.w3.org/2000/svg">
<path d="M8 2.43115C6.71442 2.43115 5.45772 2.81237 4.3888 3.5266C3.31988 4.24083 2.48676 5.25599 1.99479 6.44371C1.50282 7.63143 1.37409 8.93836 1.6249 10.1992C1.8757 11.4601 2.49477 12.6183 3.40381 13.5273C4.31285 14.4364 5.47104 15.0555 6.73192 15.3063C7.99279 15.5571 9.29973 15.4283 10.4874 14.9364C11.6752 14.4444 12.6903 13.6113 13.4046 12.5424C14.1188 11.4734 14.5 10.2167 14.5 8.93115C14.4982 7.2078 13.8128 5.55556 12.5942 4.33697C11.3756 3.11838 9.72335 2.43297 8 2.43115ZM11.5 9.43115H8C7.86739 9.43115 7.74022 9.37847 7.64645 9.28471C7.55268 9.19094 7.5 9.06376 7.5 8.93115V5.43115C7.5 5.29854 7.55268 5.17137 7.64645 5.0776C7.74022 4.98383 7.86739 4.93115 8 4.93115C8.13261 4.93115 8.25979 4.98383 8.35356 5.0776C8.44732 5.17137 8.5 5.29854 8.5 5.43115V8.43115H11.5C11.6326 8.43115 11.7598 8.48383 11.8536 8.5776C11.9473 8.67137 12 8.79854 12 8.93115C12 9.06376 11.9473 9.19094 11.8536 9.28471C11.7598 9.37847 11.6326 9.43115 11.5 9.43115Z" fill="#FFFDEA"/>
</svg>
