<svg width="23" height="15" viewBox="0 0 23 15" fill="none" xmlns="http://www.w3.org/2000/svg">
<path d="M22.2764 1.64308C22.4339 1.11995 22.2764 0.736328 21.5316 0.736328H19.0645C18.4368 0.736328 18.1499 1.0682 17.9924 1.4327C17.9924 1.4327 16.738 4.49158 14.9605 6.47495C14.3868 7.05208 14.1246 7.23433 13.8119 7.23433C13.6555 7.23433 13.4282 7.05208 13.4282 6.52895V1.64308C13.4282 1.01533 13.2471 0.736328 12.724 0.736328H8.84725C8.45575 0.736328 8.2195 1.02658 8.2195 1.30333C8.2195 1.89733 9.10825 2.03458 9.19938 3.70858V7.34008C9.19938 8.13545 9.0565 8.28058 8.7415 8.28058C7.90563 8.28058 5.87162 5.21045 4.6645 1.69595C4.42937 1.01308 4.192 0.737454 3.562 0.737454H1.096C0.390625 0.737454 0.25 1.06933 0.25 1.43383C0.25 2.08858 1.08588 5.32858 4.14363 9.6137C6.18213 12.5398 9.052 14.1261 11.6665 14.1261C13.2336 14.1261 13.4271 13.774 13.4271 13.1665V10.9547C13.4271 10.2505 13.5767 10.1087 14.0729 10.1087C14.4374 10.1087 15.0651 10.2932 16.5287 11.7028C18.2005 13.3746 18.4773 14.125 19.4166 14.125H21.8826C22.5869 14.125 22.939 13.7728 22.7365 13.0776C22.5149 12.3857 21.7161 11.3788 20.6564 10.1875C20.0804 9.50795 19.2197 8.7767 18.9576 8.41108C18.592 7.9397 18.6978 7.73158 18.9576 7.31308C18.9587 7.3142 21.9636 3.08195 22.2764 1.64308Z" fill="#FFFDEA"/>
</svg>
