<svg width="21" height="21" viewBox="0 0 21 21" fill="none" xmlns="http://www.w3.org/2000/svg">
<path d="M12.8044 12.0464L14.9606 13.1226C14.8584 13.6333 14.5822 14.0928 14.179 14.4226C13.7759 14.7524 13.2708 14.9321 12.75 14.9311C10.9604 14.9291 9.24466 14.2173 7.97922 12.9518C6.71378 11.6864 6.00198 9.97066 6 8.18106C5.99985 7.66086 6.17997 7.15668 6.50968 6.75432C6.8394 6.35196 7.29835 6.07627 7.80844 5.97418L8.88469 8.13043L7.96875 9.49356C7.90031 9.59623 7.85825 9.7142 7.84631 9.83702C7.83437 9.95983 7.85292 10.0837 7.90031 10.1976C8.43692 11.473 9.45152 12.4876 10.7269 13.0242C10.8411 13.0737 10.966 13.0939 11.09 13.0831C11.2141 13.0723 11.3335 13.0308 11.4375 12.9623L12.8044 12.0464ZM20.25 10.4311C20.2504 12.1144 19.8149 13.7691 18.986 15.2342C18.1572 16.6993 16.9631 17.9248 15.52 18.7915C14.077 19.6582 12.4341 20.1365 10.7514 20.1799C9.06863 20.2233 7.4033 19.8303 5.9175 19.0392L2.72531 20.1032C2.46102 20.1914 2.1774 20.2042 1.90624 20.1402C1.63509 20.0762 1.38711 19.938 1.19011 19.7409C0.993108 19.5439 0.854864 19.296 0.790873 19.0248C0.726882 18.7537 0.739673 18.47 0.827812 18.2057L1.89187 15.0136C1.19639 13.706 0.807935 12.2571 0.755998 10.777C0.70406 9.29683 0.990005 7.82431 1.59213 6.47118C2.19425 5.11806 3.09672 3.91988 4.23105 2.96761C5.36537 2.01534 6.70173 1.33401 8.13869 0.975317C9.57565 0.616628 11.0754 0.590015 12.5242 0.897499C13.973 1.20498 15.3327 1.83848 16.5001 2.74991C17.6675 3.66133 18.6119 4.82673 19.2616 6.15765C19.9114 7.48856 20.2494 8.95001 20.25 10.4311ZM16.5 12.6811C16.5001 12.5417 16.4614 12.4051 16.3882 12.2866C16.315 12.168 16.2102 12.0722 16.0856 12.0098L13.0856 10.5098C12.9675 10.451 12.836 10.4243 12.7043 10.4325C12.5726 10.4408 12.4455 10.4836 12.3356 10.5567L10.9584 11.4754C10.3262 11.1279 9.80598 10.6076 9.45844 9.97543L10.3772 8.59825C10.4503 8.4884 10.4931 8.36122 10.5013 8.22954C10.5096 8.09786 10.4829 7.96634 10.4241 7.84825L8.92406 4.84825C8.86189 4.72269 8.76579 4.61706 8.64665 4.54332C8.52752 4.46959 8.39011 4.4307 8.25 4.43106C7.25544 4.43106 6.30161 4.82615 5.59835 5.52941C4.89509 6.23267 4.5 7.1865 4.5 8.18106C4.50248 10.3683 5.37247 12.4653 6.91911 14.0119C8.46575 15.5586 10.5627 16.4286 12.75 16.4311C13.2425 16.4311 13.7301 16.3341 14.1851 16.1456C14.64 15.9572 15.0534 15.6809 15.4017 15.3327C15.7499 14.9845 16.0261 14.5711 16.2145 14.1161C16.403 13.6612 16.5 13.1735 16.5 12.6811Z" fill="#FFFDEA"/>
</svg>
