<svg width="23" height="17" viewBox="0 0 23 17" fill="none" xmlns="http://www.w3.org/2000/svg">
<path d="M9.25 11.8062L15.0887 8.43115L9.25 5.05615V11.8062ZM22.255 2.9974C22.4012 3.52615 22.5025 4.2349 22.57 5.1349C22.6488 6.0349 22.6825 6.81115 22.6825 7.48615L22.75 8.43115C22.75 10.8949 22.57 12.7062 22.255 13.8649C21.9737 14.8774 21.3212 15.5299 20.3088 15.8112C19.78 15.9574 18.8125 16.0587 17.3275 16.1262C15.865 16.2049 14.5262 16.2387 13.2887 16.2387L11.5 16.3062C6.78625 16.3062 3.85 16.1262 2.69125 15.8112C1.67875 15.5299 1.02625 14.8774 0.745 13.8649C0.59875 13.3362 0.4975 12.6274 0.43 11.7274C0.35125 10.8274 0.3175 10.0512 0.3175 9.37615L0.25 8.43115C0.25 5.9674 0.43 4.15615 0.745 2.9974C1.02625 1.9849 1.67875 1.3324 2.69125 1.05115C3.22 0.904902 4.1875 0.803652 5.6725 0.736152C7.135 0.657402 8.47375 0.623652 9.71125 0.623652L11.5 0.556152C16.2137 0.556152 19.15 0.736152 20.3088 1.05115C21.3212 1.3324 21.9737 1.9849 22.255 2.9974Z" fill="#FE0000"/>
</svg>
